<svg width="32" height="32" viewBox="0 0 32 32" fill="none" xmlns="http://www.w3.org/2000/svg">
    <path
        d="M0 16C0 7.16344 7.16344 0 16 0C24.8366 0 32 7.16344 32 16C32 24.8366 24.8366 32 16 32C7.16344 32 0 24.8366 0 16Z"
        fill="#F2F4F7" />
    <g clip-path="url(#clip0_7002_484992)">
        <path
            d="M9.33337 16L15.7615 19.2141C15.849 19.2578 15.8927 19.2797 15.9386 19.2883C15.9792 19.2959 16.0209 19.2959 16.0615 19.2883C16.1074 19.2797 16.1511 19.2578 16.2386 19.2141L22.6667 16M9.33337 19.3333L15.7615 22.5474C15.849 22.5911 15.8927 22.613 15.9386 22.6216C15.9792 22.6292 16.0209 22.6292 16.0615 22.6216C16.1074 22.613 16.1511 22.5911 16.2386 22.5474L22.6667 19.3333M9.33337 12.6667L15.7615 9.45259C15.849 9.40887 15.8927 9.387 15.9386 9.3784C15.9792 9.37078 16.0209 9.37078 16.0615 9.3784C16.1074 9.387 16.1511 9.40887 16.2386 9.45259L22.6667 12.6667L16.2386 15.8807C16.1511 15.9245 16.1074 15.9463 16.0615 15.9549C16.0209 15.9626 15.9792 15.9626 15.9386 15.9549C15.8927 15.9463 15.849 15.9245 15.7615 15.8807L9.33337 12.6667Z"
            stroke="#E44000" stroke-width="1.33333" stroke-linecap="round" stroke-linejoin="round" />
    </g>
    <defs>
        <clipPath id="clip0_7002_484992">
            <rect width="16" height="16" fill="white" transform="translate(8 8)" />
        </clipPath>
    </defs>
</svg>