<svg width="1934" height="474" viewBox="0 0 1934 474" fill="none" xmlns="http://www.w3.org/2000/svg">
    <path
        d="M128.926 355.383C105.372 355.383 83.7253 349.779 63.9849 338.572C44.2494 327.365 28.6501 312.132 17.1872 292.875C5.72906 273.617 0 252.308 0 228.948C0 205.587 5.71458 184.196 17.1437 164.775C28.5729 145.353 44.1239 130.043 63.7967 118.846C83.4744 107.648 105.215 102.049 129.02 102.049C152.819 102.049 174.587 107.624 194.322 118.773C214.063 129.922 229.662 145.213 241.12 164.644C252.583 184.076 258.314 205.491 258.314 228.89C258.314 252.26 252.585 273.578 241.127 292.846C229.669 312.113 214.072 327.353 194.337 338.565C174.601 349.777 152.797 355.383 128.926 355.383ZM128.969 309.512C143.999 309.512 157.781 305.955 170.315 298.84C182.854 291.726 192.72 281.986 199.911 269.621C207.108 257.255 210.706 243.63 210.706 228.745C210.706 213.86 207.105 200.23 199.904 187.855C192.708 175.475 182.838 165.725 170.293 158.606C157.754 151.482 143.96 147.92 128.911 147.92C113.862 147.92 100.138 151.487 87.7386 158.621C75.3393 165.749 65.5511 175.458 58.3741 187.746C51.1971 200.035 47.6086 213.749 47.6086 228.89C47.6086 243.746 51.2019 257.347 58.3886 269.693C65.5801 282.039 75.3827 291.762 87.7965 298.862C100.215 305.962 113.939 309.512 128.969 309.512Z"
        fill="#EFEBEB" />
    <path
        d="M303.968 225.763C303.968 202.905 309.74 182.055 321.285 163.212C332.83 144.369 348.519 129.465 368.351 118.499C388.183 107.533 410.095 102.051 434.088 102.051C458.08 102.051 480 107.591 499.846 118.673C519.693 129.755 535.408 144.97 546.992 164.32C558.575 183.664 564.367 205.072 564.367 228.544C564.367 251.981 558.59 273.36 547.035 292.68C535.485 311.996 519.763 327.277 499.868 338.523C479.978 349.764 458 355.384 433.936 355.384C418.491 355.384 403.027 352.005 387.543 345.248C372.06 338.491 360.534 330.016 352.966 319.822V474H303.968V225.763ZM350.534 228.891C350.534 244.104 354.233 258.12 361.632 270.94C369.031 283.759 379.121 293.856 391.902 301.231C404.682 308.606 418.809 312.293 434.283 312.293C449.689 312.293 463.812 308.663 476.65 301.404C489.489 294.145 499.615 284.126 507.028 271.345C514.442 258.564 518.148 244.435 518.148 228.956C518.148 213.7 514.444 199.662 507.035 186.843C499.631 174.023 489.477 163.926 476.57 156.551C463.669 149.177 449.537 145.489 434.174 145.489C419.034 145.489 405.01 149.177 392.104 156.551C379.203 163.926 369.048 174.023 361.639 186.843C354.236 199.662 350.534 213.678 350.534 228.891Z"
        fill="#EFEBEB" />
    <path d="M628.8 10.6557H679.254V349.824H628.8V10.6557ZM594.021 107.632H712.883V143.686H594.021V107.632Z"
        fill="#EFEBEB" />
    <path
        d="M763.575 107.633H812.393V349.825H763.575V107.633ZM787.807 60.7488C779.124 60.7488 771.705 57.7829 765.552 51.8511C759.403 45.9194 756.328 38.711 756.328 30.226C756.328 24.8106 757.709 19.7452 760.469 15.0297C763.235 10.3142 767.036 6.63163 771.872 3.98186C776.708 1.32728 782.029 0 787.836 0C793.357 0 798.531 1.32728 803.358 3.98186C808.184 6.63163 811.978 10.3142 814.738 15.0297C817.499 19.7452 818.88 24.8106 818.88 30.226C818.88 38.711 815.873 45.9194 809.859 51.8511C803.845 57.7829 796.494 60.7488 787.807 60.7488Z"
        fill="#EFEBEB" />
    <path
        d="M850.523 37.2143H924.195L955.351 142.77H887.804L850.523 37.2143ZM1112.5 37.2143H1186.17L1148.89 142.77H1081.11L1112.5 37.2143ZM1115.04 400.501H1039.57L946.761 142.77H1014.3L1087.85 361.863H1066.47L1140.06 142.77H1207.84L1115.04 400.501Z"
        fill="#EFEBEB" />
    <path
        d="M1366.41 355.383C1342.86 355.383 1321.21 349.779 1301.47 338.572C1281.74 327.365 1266.14 312.132 1254.68 292.875C1243.22 273.617 1237.49 252.308 1237.49 228.948C1237.49 205.587 1243.2 184.196 1254.63 164.775C1266.06 145.353 1281.61 130.043 1301.29 118.846C1320.96 107.648 1342.7 102.049 1366.51 102.049C1390.31 102.049 1412.08 107.624 1431.81 118.773C1451.55 129.922 1467.15 145.213 1478.61 164.644C1490.07 184.076 1495.8 205.491 1495.8 228.89C1495.8 252.26 1490.07 273.578 1478.62 292.846C1467.16 312.113 1451.56 327.353 1431.83 338.565C1412.09 349.777 1390.29 355.383 1366.41 355.383ZM1366.46 309.512C1381.49 309.512 1395.27 305.955 1407.8 298.84C1420.34 291.726 1430.21 281.986 1437.4 269.621C1444.6 257.255 1448.19 243.63 1448.19 228.745C1448.19 213.86 1444.59 200.23 1437.39 187.855C1430.2 175.475 1420.33 165.725 1407.78 158.606C1395.24 151.482 1381.45 147.92 1366.4 147.92C1351.35 147.92 1337.63 151.487 1325.23 158.621C1312.83 165.749 1303.04 175.458 1295.86 187.746C1288.69 200.035 1285.1 213.749 1285.1 228.89C1285.1 243.746 1288.69 257.347 1295.88 269.693C1303.07 282.039 1312.87 291.762 1325.29 298.862C1337.7 305.962 1351.43 309.512 1366.46 309.512Z"
        fill="#EFEBEB" />
    <path d="M1561.6 10.6557H1612.05V349.824H1561.6V10.6557ZM1526.82 107.632H1645.68V143.686H1526.82V107.632Z"
        fill="#EFEBEB" />
    <path
        d="M1676.74 228.89C1676.74 204.487 1682.22 182.652 1693.18 163.384C1704.15 144.117 1719.32 129.078 1738.71 118.266C1758.09 107.455 1780.1 102.049 1804.73 102.049C1829.99 102.049 1852.83 107.841 1873.25 119.425C1893.68 131.008 1909.33 147.766 1920.22 169.698C1931.11 191.629 1935.36 217.268 1932.96 246.613H1727.82C1729.21 261.671 1734.54 274.722 1743.8 285.765C1750.52 293.488 1759.08 300.013 1769.46 305.342C1779.85 310.67 1792.07 313.45 1806.12 313.682C1818.94 313.913 1830.68 311.5 1841.34 306.442C1852 301.384 1860.68 294.685 1867.4 286.344H1923C1912.42 307.427 1897.08 324.204 1876.96 336.675C1856.84 349.147 1833 355.383 1805.43 355.383C1780.79 355.383 1758.67 349.958 1739.06 339.108C1719.44 328.258 1704.15 313.238 1693.18 294.048C1682.22 274.857 1676.74 253.138 1676.74 228.89ZM1882.69 209.545C1880.53 194.023 1874.97 181.474 1866.01 171.898C1858.6 163.095 1849.68 156.434 1839.25 151.917C1828.83 147.399 1817.44 145.14 1805.08 145.14C1791.88 145.14 1780.04 147.631 1769.58 152.612C1759.11 157.593 1750.25 164.524 1742.99 173.404C1738.59 178.269 1735.16 183.675 1732.68 189.621C1730.21 195.568 1728.51 202.209 1727.59 209.545H1882.69Z"
        fill="#EFEBEB" />
</svg>