<svg width="48" height="48" viewBox="0 0 48 48" fill="none" xmlns="http://www.w3.org/2000/svg">
    <path
        d="M0.15 24C0.15 10.828 10.828 0.15 24 0.15C37.172 0.15 47.85 10.828 47.85 24C47.85 37.172 37.172 47.85 24 47.85C10.828 47.85 0.15 37.172 0.15 24Z"
        fill="#EFEBEB" />
    <path
        d="M0.15 24C0.15 10.828 10.828 0.15 24 0.15C37.172 0.15 47.85 10.828 47.85 24C47.85 37.172 37.172 47.85 24 47.85C10.828 47.85 0.15 37.172 0.15 24Z"
        stroke="#E4E7EC" stroke-width="0.3" />
    <path
        d="M24.2556 40.5818C22.0167 40.5818 19.9589 40.0492 18.0824 38.9838C16.2063 37.9185 14.7235 36.4705 13.6338 34.6398C12.5446 32.8092 12 30.7836 12 28.5629C12 26.3423 12.5432 24.3089 13.6297 22.4627C14.7161 20.6164 16.1944 19.1611 18.0645 18.0966C19.9351 17.0322 22.0018 16.5 24.2646 16.5C26.527 16.5 28.5962 17.0299 30.4722 18.0898C32.3488 19.1496 33.8316 20.6031 34.9208 22.4503C36.0105 24.2974 36.5553 26.3331 36.5553 28.5574C36.5553 30.779 36.0107 32.8055 34.9215 34.6371C33.8323 36.4686 32.3497 37.9173 30.4736 38.9831C28.5976 40.0489 26.5249 40.5818 24.2556 40.5818ZM24.2598 36.2213C25.6885 36.2213 26.9986 35.8832 28.1901 35.2069C29.3821 34.5306 30.3199 33.6048 31.0035 32.4293C31.6876 31.2538 32.0297 29.9586 32.0297 28.5437C32.0297 27.1287 31.6874 25.833 31.0029 24.6567C30.3188 23.4798 29.3805 22.553 28.1881 21.8763C26.9961 21.1991 25.6848 20.8605 24.2543 20.8605C22.8237 20.8605 21.5191 21.1996 20.3404 21.8777C19.1617 22.5553 18.2313 23.4782 17.549 24.6463C16.8668 25.8145 16.5257 27.1182 16.5257 28.5574C16.5257 29.9696 16.8672 31.2626 17.5504 32.4362C18.234 33.6098 19.1659 34.5341 20.3459 35.209C21.5264 35.8839 22.831 36.2213 24.2598 36.2213Z"
        fill="#FA4600" />
</svg>