<svg width="99" height="26" viewBox="0 0 99 26" fill="none" xmlns="http://www.w3.org/2000/svg">
    <path
        d="M6.57021 19.033C5.3699 19.033 4.26675 18.7474 3.26075 18.1763C2.255 17.6052 1.46005 16.8289 0.87588 15.8475C0.29196 14.8661 0 13.7802 0 12.5897C0 11.3992 0.291222 10.3091 0.873666 9.31936C1.45611 8.3296 2.24861 7.5494 3.25116 6.97876C4.25396 6.40812 5.36191 6.1228 6.575 6.1228C7.78785 6.1228 8.89715 6.40689 9.9029 6.97507C10.9089 7.54325 11.7039 8.32246 12.2878 9.31272C12.8719 10.303 13.164 11.3943 13.164 12.5868C13.164 13.7777 12.8721 14.8641 12.2881 15.846C11.7042 16.8279 10.9094 17.6046 9.90364 18.1759C8.89789 18.7473 7.78675 19.033 6.57021 19.033ZM6.57242 16.6953C7.33835 16.6953 8.0407 16.5141 8.67947 16.1515C9.31849 15.789 9.82124 15.2926 10.1877 14.6624C10.5545 14.0323 10.7378 13.3379 10.7378 12.5794C10.7378 11.8208 10.5543 11.1262 10.1874 10.4956C9.82063 9.86466 9.31763 9.36781 8.67837 9.00502C8.03935 8.64197 7.33638 8.46045 6.56947 8.46045C5.80255 8.46045 5.10315 8.64222 4.47127 9.00575C3.83938 9.36904 3.34057 9.8638 2.97482 10.49C2.60907 11.1163 2.42619 11.8152 2.42619 12.5868C2.42619 13.3438 2.60931 14.037 2.97556 14.6661C3.34204 15.2953 3.8416 15.7908 4.47422 16.1526C5.10709 16.5144 5.80649 16.6953 6.57242 16.6953Z"
        fill="#FA4600" />
    <path
        d="M15.4905 12.4271C15.4905 11.2622 15.7847 10.1997 16.373 9.23942C16.9613 8.27918 17.7609 7.51964 18.7715 6.96081C19.7822 6.40197 20.8989 6.12256 22.1216 6.12256C23.3442 6.12256 24.4613 6.40493 25.4727 6.96966C26.4841 7.53439 27.285 8.3098 27.8753 9.29587C28.4656 10.2817 28.7608 11.3727 28.7608 12.5688C28.7608 13.7632 28.4663 14.8527 27.8775 15.8373C27.2889 16.8216 26.4877 17.6004 25.4738 18.1735C24.4602 18.7463 23.3402 19.0327 22.1138 19.0327C21.3267 19.0327 20.5387 18.8606 19.7496 18.5162C18.9605 18.1719 18.3732 17.74 17.9875 17.2205V25.0776H15.4905V12.4271ZM17.8635 12.5865C17.8635 13.3618 18.0521 14.0761 18.4291 14.7294C18.8062 15.3826 19.3204 15.8972 19.9717 16.273C20.623 16.6489 21.343 16.8368 22.1315 16.8368C22.9166 16.8368 23.6363 16.6518 24.2906 16.2819C24.9449 15.9119 25.4609 15.4013 25.8387 14.75C26.2165 14.0987 26.4054 13.3786 26.4054 12.5898C26.4054 11.8123 26.2166 11.0969 25.8391 10.4437C25.4618 9.79038 24.9442 9.27582 24.2865 8.89999C23.6291 8.52416 22.9089 8.33624 22.126 8.33624C21.3544 8.33624 20.6397 8.52416 19.982 8.89999C19.3246 9.27582 18.8071 9.79038 18.4295 10.4437C18.0522 11.0969 17.8635 11.8112 17.8635 12.5865Z"
        fill="#FA4600" />
    <path d="M32.0444 1.46509H34.6156V18.7495H32.0444V1.46509ZM30.272 6.40713H36.3293V8.24449H30.272V6.40713Z"
        fill="#FA4600" />
    <path
        d="M38.9128 6.40725H41.4006V18.7496H38.9128V6.40725ZM40.1476 4.01795C39.7051 4.01795 39.3271 3.86681 39.0135 3.56452C38.7001 3.26223 38.5435 2.89488 38.5435 2.46247C38.5435 2.1865 38.6138 1.92836 38.7545 1.68805C38.8954 1.44775 39.0891 1.26008 39.3356 1.12504C39.582 0.989759 39.8532 0.922119 40.1491 0.922119C40.4305 0.922119 40.6942 0.989759 40.9401 1.12504C41.1861 1.26008 41.3794 1.44775 41.5201 1.68805C41.6608 1.92836 41.7312 2.1865 41.7312 2.46247C41.7312 2.89488 41.5779 3.26223 41.2714 3.56452C40.965 3.86681 40.5904 4.01795 40.1476 4.01795Z"
        fill="#FA4600" />
    <path
        d="M43.3438 2.8186H47.0982L48.6859 8.19785H45.2436L43.3438 2.8186ZM56.6945 2.8186H60.4489L58.549 8.19785H55.0945L56.6945 2.8186ZM56.824 21.3322H52.9777L48.2482 8.19785H51.6899L55.4382 19.3631H54.3485L58.099 8.19785H61.5529L56.824 21.3322Z"
        fill="#FA4600" />
    <path
        d="M69.6342 19.033C68.4339 19.033 67.3307 18.7474 66.3247 18.1763C65.319 17.6052 64.524 16.8289 63.9398 15.8475C63.3559 14.8661 63.064 13.7802 63.064 12.5897C63.064 11.3992 63.3552 10.3091 63.9376 9.31936C64.5201 8.3296 65.3126 7.5494 66.3151 6.97876C67.3179 6.40812 68.4259 6.1228 69.639 6.1228C70.8518 6.1228 71.9611 6.40689 72.9669 6.97507C73.9729 7.54325 74.7678 8.32246 75.3517 9.31272C75.9359 10.303 76.228 11.3943 76.228 12.5868C76.228 13.7777 75.936 14.8641 75.3521 15.846C74.7682 16.8279 73.9734 17.6046 72.9676 18.1759C71.9619 18.7473 70.8507 19.033 69.6342 19.033ZM69.6364 16.6953C70.4023 16.6953 71.1047 16.5141 71.7434 16.1515C72.3825 15.789 72.8852 15.2926 73.2517 14.6624C73.6184 14.0323 73.8018 13.3379 73.8018 12.5794C73.8018 11.8208 73.6183 11.1262 73.2513 10.4956C72.8846 9.86466 72.3816 9.36781 71.7423 9.00502C71.1033 8.64197 70.4003 8.46045 69.6334 8.46045C68.8665 8.46045 68.1671 8.64222 67.5352 9.00575C66.9033 9.36904 66.4045 9.8638 66.0388 10.49C65.673 11.1163 65.4902 11.8152 65.4902 12.5868C65.4902 13.3438 65.6733 14.037 66.0395 14.6661C66.406 15.2953 66.9056 15.7908 67.5382 16.1526C68.1711 16.5144 68.8705 16.6953 69.6364 16.6953Z"
        fill="#FA4600" />
    <path d="M79.581 1.46509H82.1522V18.7495H79.581V1.46509ZM77.8086 6.40713H83.866V8.24449H77.8086V6.40713Z"
        fill="#FA4600" />
    <path
        d="M85.4487 12.5868C85.4487 11.3432 85.7281 10.2304 86.287 9.24852C86.8458 8.26663 87.6191 7.5002 88.6069 6.94924C89.5947 6.39828 90.7163 6.1228 91.9717 6.1228C93.2586 6.1228 94.4225 6.41796 95.4634 7.00828C96.5043 7.59859 97.3023 8.45258 97.8572 9.57024C98.412 10.6879 98.6285 11.9945 98.5065 13.4899H88.052C88.1229 14.2573 88.3944 14.9224 88.8667 15.4852C89.209 15.8787 89.6449 16.2113 90.1742 16.4828C90.7035 16.7544 91.3263 16.8961 92.0425 16.9079C92.6958 16.9197 93.294 16.7967 93.8371 16.5389C94.3802 16.2811 94.8229 15.9397 95.1653 15.5147H97.9988C97.4597 16.5891 96.6775 17.4441 95.6523 18.0796C94.6271 18.7152 93.4121 19.033 92.0071 19.033C90.7517 19.033 89.6242 18.7565 88.6246 18.2036C87.625 17.6507 86.8458 16.8852 86.287 15.9073C85.7281 14.9293 85.4487 13.8225 85.4487 12.5868ZM95.9445 11.6009C95.8343 10.8099 95.551 10.1704 95.0945 9.6824C94.7167 9.23376 94.2621 8.89433 93.7309 8.66411C93.1996 8.43389 92.6191 8.31877 91.9894 8.31877C91.3165 8.31877 90.7134 8.44569 90.1801 8.69953C89.6469 8.95336 89.1953 9.30657 88.8253 9.75914C88.601 10.0071 88.4259 10.2826 88.3 10.5856C88.174 10.8886 88.0874 11.2271 88.0402 11.6009H95.9445Z"
        fill="#FA4600" />
</svg>